<?xml version="1.0" encoding="UTF-8"?>
<svg width="193px" height="193px" viewBox="0 0 193 193" version="1.1" xmlns="http://www.w3.org/2000/svg" xmlns:xlink="http://www.w3.org/1999/xlink">
    <!-- Generator: sketchtool 52.6 (67491) - http://www.bohemiancoding.com/sketch -->
    <title>AF682257-A8D9-4611-BA7D-4DCD63A0A247</title>
    <desc>Created with sketchtool.</desc>
    <defs>
        <polygon id="path-1" points="0 0.0075390625 193 0.0075390625 193 192.999981 0 192.999981"></polygon>
    </defs>
    <g id="Page-1" stroke="none" stroke-width="1" fill="none" fill-rule="evenodd">
        <g id="Template-12" transform="translate(-342.000000, -3309.000000)">
            <g id="Group-10" transform="translate(342.000000, 3309.000000)">
                <g id="Group-3">
                    <mask id="mask-2" fill="white">
                        <use xlink:href="#path-1"></use>
                    </mask>
                    <g id="Clip-2"></g>
                    <path d="M114.623529,73.3072805 L114.623529,7.85690937 C117.623322,7.05588398 120.958227,7.82185273 123.307021,10.1706477 L182.829428,69.6930539 C183.859264,70.7225129 184.606008,71.9585422 185.035734,73.3072805 L114.623529,73.3072805 Z M182.829805,82.3993898 L89.938377,175.290441 C89.4592695,175.769548 88.9360586,176.177034 88.385707,176.525339 L88.385707,107.084542 L98.100166,107.084542 C107.211123,107.084542 114.623906,99.6721359 114.623906,90.560802 L114.623906,80.846343 L157.831781,80.846343 L136.018635,102.659866 C135.282822,103.395679 134.914539,104.360679 134.914539,105.325302 C134.914539,106.290302 135.282445,107.254548 136.018635,107.990737 C137.490637,109.462739 139.877504,109.462739 141.349883,107.990737 L168.491262,80.8493586 C168.492016,80.8486047 168.49277,80.8474738 168.493523,80.8467199 L184.072242,80.846343 C183.719791,81.4019719 183.306273,81.923298 182.829805,82.3993898 Z M67.220543,99.5454797 L78.398334,88.3676887 C79.8703359,86.8956867 79.8707129,84.5088195 78.398334,83.0368176 C76.9259551,81.5648156 74.5394648,81.5644387 73.0674629,83.0368176 L56.5584238,99.5454797 L45.5758945,99.5454797 L79.6547187,65.4666555 C81.1263437,63.9946535 81.1267207,61.6077863 79.6547187,60.1354074 C78.1827168,58.6634055 75.7958496,58.6634055 74.3234707,60.1354074 L34.9141523,99.5454797 L21.2262305,99.5454797 L107.084467,13.6868664 L107.084467,90.560802 C107.084467,95.5150969 103.054084,99.5454797 98.0997891,99.5454797 L67.220543,99.5454797 Z M80.8462676,177.485816 C79.523916,177.064759 78.2788398,176.337616 77.2316641,175.290441 L17.7096348,115.768034 C15.3608398,113.418862 14.5948711,110.083958 15.3958965,107.084542 L80.8462676,107.084542 L80.8462676,177.485816 Z M188.160299,64.3621828 L128.637893,4.83939961 C122.195387,-1.60310625 111.71232,-1.60310625 105.269814,4.83939961 L12.3787637,97.7308273 C9.15769922,100.952269 7.54697852,105.183568 7.54697852,109.414866 C7.54697852,113.646165 9.15769922,117.877464 12.3787637,121.098905 L27.3132695,136.033411 L10.9146777,152.432003 C10.1784883,153.168193 9.81058203,154.132816 9.81058203,155.097439 C9.81058203,156.062062 10.1784883,157.026685 10.9146777,157.762874 C12.3866797,159.234876 14.7735469,159.235253 16.2455488,157.762874 L32.6441406,141.364282 L39.4741543,148.194673 L1.1040957,186.565109 C0.36790625,187.300921 0,188.265921 0,189.230544 C0,190.195167 0.36790625,191.160167 1.1040957,191.89598 C2.57609766,193.367982 4.96296484,193.367982 6.43534375,191.89598 L44.8057793,153.525544 L71.9011699,180.621312 C78.3440527,187.063441 88.8267422,187.063441 95.269248,180.621312 L188.160299,87.729884 C191.281094,84.609466 193,80.4595891 193,76.0462219 C193,71.6324777 191.281094,67.4829777 188.160299,64.3621828 Z" id="Fill-1" fill="#FFFFFF" mask="url(#mask-2)"></path>
                </g>
            </g>
        </g>
    </g>
</svg>